<svg width="1744" height="1719" viewBox="0 0 1744 1719" fill="none" xmlns="http://www.w3.org/2000/svg">
<path d="M1084.91 1072.72C985.843 1369.63 721.203 1461.32 581.27 1092.54C562.027 1041.83 612.342 1022.95 647.529 1000.63C671.631 985.348 684.292 972.093 682.823 958.426C675.896 893.951 645.902 714.572 645.902 714.572L642.852 708.793C642.852 708.793 643.583 707.173 640.712 710.038C637.719 713.025 630.818 744.214 603.621 744.214C579.237 744.214 554.482 733.314 542.636 657.886C538.348 630.589 540.781 559.025 570.989 546.102C583.471 540.763 594.987 538.854 606.221 545.263C617.456 551.671 593.26 523.357 718.208 419.232C799.426 351.549 927.717 341.629 979.483 353.057C1031.25 364.484 1083.02 389.824 1105.91 443.483C1133.69 508.593 1080.03 557.759 1091.82 706.042C1089.67 759.617 1092.74 877.198 945.313 916.607C917.313 924.093 926 965 968 975C1035 996 1084.96 1047.27 1084.96 1072.86" fill="white"/>
<path fill-rule="evenodd" clip-rule="evenodd" d="M1084.94 611.2L1085.1 609.806C1089.24 573.399 1093.26 538.118 1112.24 506.429C1118.7 510.85 1117.95 516.452 1115.93 521.643C1096.01 572.845 1097.84 626.04 1099.67 679.206C1099.83 683.863 1099.99 688.519 1100.14 693.174C1102.22 759.601 1085.65 819.988 1041.35 870.736C1025.98 888.348 1005.63 900.464 984.854 911.045C963.515 921.912 959.03 931.132 965.687 954.599C965.93 955.455 966.229 956.315 966.529 957.178C967.892 961.1 969.273 965.073 965.487 968.95C960.965 973.58 956.026 972.259 950.683 970.829C950.48 970.775 950.277 970.721 950.074 970.667C899.733 957.241 854.697 933.154 813.056 902.393C807.139 898.022 802.272 892.06 797.561 886.29L797.561 886.289L797.256 885.916C794.776 882.879 794.338 878.141 797.807 875.462C801.054 872.955 803.609 875.011 806.452 877.298C806.815 877.59 807.182 877.886 807.556 878.176C830.027 895.614 854.773 907.063 883.768 909.943C897.176 911.275 910.448 910.784 923.708 910.293H923.708H923.709C931.17 910.017 938.626 909.741 946.101 909.79C956.34 909.857 964.752 905.107 972.761 900.584C973.712 900.047 974.658 899.513 975.601 898.99C1003.45 883.545 1029.88 866.229 1047.84 838.331C1063.92 813.331 1073.67 786.1 1079.4 757.443C1086.65 721.27 1085.99 684.7 1085.32 647.621C1085.11 635.536 1084.89 623.397 1084.94 611.2ZM581.684 535.824C603.577 534.064 615.771 547.033 626.037 562.053C638.664 580.526 645.39 601.465 648.37 623.572C648.87 627.28 649.389 631.223 647.152 634.856C642.737 635.45 642.319 631.946 642.252 629.317C641.696 608.644 632.526 590.61 623.308 573.156C616.73 560.704 607.059 548.64 591.943 545.577C574.71 542.084 558.858 557.566 551.067 577.842C536.636 615.398 539.029 652.36 552.455 688.759C558.33 704.687 565.648 720.913 580.303 732.026C595.142 743.28 613.008 741.295 623.903 726.349C624.526 725.494 625.184 724.649 625.845 723.801L625.845 723.801L625.845 723.801C627.841 721.238 629.853 718.656 630.928 715.749C633.035 710.049 636.256 704.629 642.155 705.423C648.978 706.342 650.271 713.729 650.909 719.499C656.707 771.928 664.758 824.024 672.81 876.126L672.81 876.126C674.808 889.053 676.806 901.98 678.769 914.913C681.369 932.023 684.381 956.598 682.361 967.05C682.219 967.792 682.136 968.523 682.058 969.222C681.749 971.958 681.496 974.21 677.906 974.75C673.034 975.484 670.831 972.66 670.233 968.28C667.913 951.274 667.273 944.747 666.275 918.735C665.308 893.519 660.569 868.665 655.83 843.816L655.83 843.815C654.111 834.799 652.392 825.784 650.853 816.753C645.613 785.996 640.483 754.802 640.022 719.777C639.326 720.808 638.644 721.825 637.974 722.826C630.426 734.095 624.264 743.295 613.48 746.877C595.58 752.827 579.917 748.422 567.371 734.277C553.071 718.155 543.783 699.808 538.558 678.498C530.244 644.587 528.704 611.368 539.487 577.853C544.655 561.774 563.189 533.208 581.684 535.824ZM616.346 663.326C620.717 666.467 624.679 669.316 628.334 657.948C627.158 615.652 613.6 588.654 592.472 587.632C603.747 602.197 614.559 616.413 615.472 636.132C610.742 633.978 607.7 630.589 604.784 627.342C602.753 625.08 600.784 622.886 598.348 621.226C597.31 620.518 596.295 619.735 595.271 618.946C590.544 615.301 585.636 611.516 577.471 614.357C581.301 620.187 586.575 624.301 591.799 628.377C597.832 633.083 603.798 637.737 607.392 644.919C596.777 652.561 592.209 662.62 597.718 674.761C602.497 685.296 609.565 694 623.565 694.635C623.043 688.31 618.868 683.707 614.812 679.235C609.879 673.796 605.121 668.55 607.316 660.635C610.515 659.133 613.516 661.291 616.346 663.326Z" fill="black"/>
<path d="M1492.4 1609.44L188.7 1606.14C188.7 1606.14 222.136 1396.44 284.9 1277.22C357.909 1138.54 461.7 1026.69 675.344 960.315C693.929 954.541 847.844 1029.03 847.844 1029.03L956.533 958.913C956.533 958.913 1131.58 1007.23 1197.75 1044.46C1281.95 1091.83 1377.03 1231.6 1420.82 1340.51C1467.36 1456.25 1492.4 1609.44 1492.4 1609.44Z" fill="white"/>
<path d="M1076.52 1609.44C1063.4 1607.68 1062.97 1596.72 1059.53 1588.67C1055.09 1578.27 1049.69 1575.4 1040.79 1583.61C1034.32 1589.58 1030.61 1587.83 1026.22 1580.42C1020.85 1571.34 1012.12 1564.12 1022.53 1552.62C1026.36 1548.4 1022.5 1543.67 1017.11 1542.32C1011.59 1540.95 1009.69 1536.94 1008.96 1532.16C1008.05 1526.18 1013.62 1526.29 1016.92 1524.03C1025.92 1517.88 1033.18 1510.12 1035.57 1499.05C1036.36 1495.43 1037.37 1491.3 1041.21 1491.82C1054.4 1493.63 1062.85 1483.92 1073.64 1479.53C1078.64 1481.23 1079.91 1485.88 1081.67 1490.12C1084.23 1496.29 1086.89 1502.04 1095.49 1499.75C1096.97 1499.32 1098.55 1499.51 1099.89 1500.27C1101.23 1501.02 1102.21 1502.28 1102.62 1503.76C1104.42 1509.3 1106.65 1513.77 1113.28 1514.75C1116.03 1515.16 1117.42 1518.15 1116.64 1520.79C1114.94 1526.52 1117.47 1529.5 1122.33 1531.74C1123.57 1532.22 1124.52 1533.24 1124.92 1534.51C1125.31 1535.77 1125.11 1537.15 1124.36 1538.25C1115.79 1550.18 1119.03 1562.18 1124.58 1575.68C1107.79 1580.11 1096.3 1589.47 1095.64 1608.59C1089.79 1609.44 1083.72 1609.44 1076.52 1609.44Z" fill="black"/>
<path d="M756.057 1600.53C745.134 1606.47 738.222 1596.52 729.076 1595.32C718.55 1593.94 716.002 1596.79 715.676 1605.78C715.494 1610.77 716.329 1616.78 709.108 1617.64C695.826 1619.21 681.668 1613.88 681.208 1606.57C680.595 1596.87 677.542 1593.8 668.622 1599.05C664.103 1601.88 658.249 1601.37 654.295 1597.78C650.026 1594.18 654.144 1589.98 655.049 1586.06C657.595 1575.03 654.976 1564.66 649.622 1555.2C647.822 1552.02 644.842 1548.29 647.971 1546.53C659.494 1540.04 656.005 1529.28 656.601 1519.82C657.182 1510.59 662.447 1512.08 668.118 1513.96C675.725 1516.48 681.662 1519.04 689.637 1511.18C695.167 1505.73 707.696 1506.61 715.763 1509.44C721.799 1511.55 726.852 1514.49 733.563 1510.92C737.988 1525.08 744.642 1534.97 759.525 1536.79C765.625 1537.53 765.133 1542.86 762.164 1546.62C754.264 1556.62 760.746 1567.54 759.802 1577.95C759.402 1582.39 765.469 1582.07 769.644 1583.78C765.445 1589.62 760.908 1595.21 756.057 1600.53Z" fill="black"/>
<path d="M315.672 1617.91C303.878 1612.96 307.134 1600.13 299.903 1592.35C294.246 1586.26 291.177 1585.61 285.67 1589.81C277.185 1596.29 271.101 1598.35 265.498 1585.63C261.561 1576.69 252.198 1570.18 261.953 1559.19C264.804 1555.98 259.921 1552.64 256.386 1550.82C251.112 1548.1 247.619 1544.23 248.296 1535.77C263.208 1538.24 265.283 1522.11 275.596 1516.53C278.696 1514.86 278.196 1511.43 278.088 1508.48C277.901 1503.43 281.676 1500.2 285.115 1501.85C296.236 1507.2 300.873 1498.78 307.015 1493.1C316.68 1484.17 319.285 1484.82 322.086 1497.59C323.586 1504.45 325.212 1510.15 334.232 1508.51C336.071 1508.18 339.01 1508.73 340.055 1510C348.467 1520.28 358.955 1528.84 365.544 1540.65C366.679 1542.68 367.484 1545.1 366.003 1546.57C353.932 1558.6 358.052 1570.67 367.017 1583.51C349.517 1588.72 332.506 1593.64 334.722 1617.06C328.946 1617.91 322.878 1617.91 315.672 1617.91Z" fill="black"/>
<path d="M1427.22 1609.44C1411.88 1607.74 1415.09 1593.11 1409.37 1585.19C1402.57 1575.78 1398.37 1576.37 1391.54 1582.21C1384.31 1588.39 1378.68 1591.69 1376.07 1578.47C1375.47 1575.46 1372.25 1572.95 1370.18 1570.24C1366.43 1565.33 1364.97 1561.05 1370.66 1555.9C1377.39 1549.82 1375.46 1544.41 1367.04 1541.99C1360.91 1540.23 1356.84 1536.69 1356.98 1530.53C1357.12 1524.44 1362.91 1525.88 1366.85 1525.12C1370.5 1524.41 1373.57 1522.16 1374.05 1518.67C1375.04 1511.49 1380 1509 1386.49 1507.48C1384.39 1496.49 1386.07 1489.88 1399.31 1494.34C1407.77 1497.19 1410.07 1487.6 1415.33 1484.12C1425.43 1477.45 1428.62 1477.49 1431.51 1489.44C1433.38 1497.21 1435.63 1502.21 1444.97 1500.08C1449.38 1499.07 1450.52 1503.12 1451.54 1506.41C1452.58 1509.79 1453.75 1513.24 1457.82 1513.56C1470.79 1514.58 1467.11 1520.98 1462.32 1527.32C1464.95 1532.77 1471.45 1530.18 1475.04 1535.08C1464.43 1547.28 1464.89 1560.57 1473.94 1573.17C1472.46 1578.26 1468.71 1578.68 1465.47 1578.55C1450.47 1577.92 1450.72 1594.69 1440.82 1600.07C1438.84 1601.14 1442.14 1605.37 1443.7 1608.72C1438.23 1609.35 1432.72 1609.59 1427.22 1609.44Z" fill="black"/>
<path d="M1107.29 1058.29C1098.47 1052.32 1090.81 1046.79 1089.86 1035.73C1089.38 1030.13 1085.63 1025.92 1079.54 1024.13C1087.89 1013.72 1088.46 990.792 1088.46 990.792C1088.46 990.792 1085.46 999.37 1161.89 1022.01C1153.63 1042.66 1162.48 1052.46 1142.93 1066.31C1133.73 1057.04 1119.93 1062.78 1107.29 1058.29Z" fill="black"/>
<path d="M1084.11 1258.54C1065.71 1261.74 1062.06 1247.32 1057.87 1236.61C1053.78 1226.16 1049.43 1228.71 1042.68 1232.26C1038.45 1234.5 1035.3 1242.45 1028.84 1236.19C1020.67 1228.27 1016.21 1212.45 1021.18 1206.96C1027.1 1200.41 1025.47 1196.5 1018.34 1193.49C1012.75 1191.13 1008.73 1187.5 1008.67 1181.28C1008.59 1173.95 1015.71 1175.41 1019.74 1172.98C1027.34 1168.42 1029.28 1159.48 1034.33 1152.9C1034.8 1152.28 1034.64 1151.22 1034.97 1150.44C1036.79 1146.09 1073.27 1128.02 1075.03 1130.92C1081.37 1141.58 1090.68 1150.15 1101.83 1155.59C1105.99 1157.72 1110.53 1165.15 1116.54 1166.94C1119.32 1172.69 1113.02 1175.06 1113.31 1178.99C1116.37 1182.98 1122.14 1181.22 1124.72 1186.36C1117.52 1196.31 1118.64 1207.38 1123.34 1218.33C1125.7 1223.82 1124.83 1227.61 1119.08 1229.33C1105.79 1233.3 1097.51 1242.06 1093.32 1255.06C1091.98 1259.23 1088.72 1259.57 1084.11 1258.54Z" fill="black"/>
<path d="M764.717 1166.62C766.977 1173.73 765.117 1181.93 775.453 1184.55C767.339 1196.14 767.835 1207.23 773.753 1218.49C776.503 1223.73 775.062 1227.33 768.916 1228.89C754.531 1232.52 742.946 1238.74 741.516 1256.02C741.163 1260.27 736.699 1260.13 733.826 1256.84C731.956 1254.69 732.953 1250.82 729.175 1249.17C727.204 1252.75 728.03 1259.14 721.306 1258.37C715.35 1257.68 716.166 1253.06 715.392 1248.83C713.929 1240.84 706.283 1235.84 705.156 1227.69C697.587 1227.03 694.163 1232.91 689.241 1235.77C683.841 1238.91 680.068 1239.27 677.355 1232.42C673.499 1222.67 661.455 1214.64 673.469 1202.16C677.085 1198.41 671.187 1194.94 667.387 1193.05C662.028 1190.39 658.102 1186.35 658.126 1180.36C658.151 1173.82 666.001 1175.97 668.31 1173.05C674.638 1165.04 686.294 1162.23 688.142 1149.45C689.742 1138.36 698.272 1147.74 704.067 1146.71C706.567 1143.42 708.813 1139.24 712.15 1136.3C722.525 1127.17 726.691 1128.31 732.271 1140.94C733.123 1142.86 734.087 1146.32 735.105 1146.36C748.982 1146.91 753.282 1161.19 764.717 1166.62Z" fill="black"/>
<path d="M321.29 1210.14C323.976 1204.83 327.132 1200.48 328.221 1195.65C332.726 1175.71 341.261 1158.38 360.521 1149.38C369.175 1145.33 367.365 1133.92 375.745 1130.72C381.157 1133.08 380.163 1138.1 381.623 1141.83C382.693 1144.56 383.255 1149.69 385.623 1149.14C400.323 1145.75 402.323 1161.79 412.264 1165.85C420.331 1169.15 417.709 1181.52 427.251 1185.59C413.515 1198.25 416.604 1210.89 426.738 1224.99C408.866 1230.84 391.823 1237.03 390.487 1258.48C384.243 1258.12 384.673 1251.58 377.042 1249.42C374.988 1248.87 375.013 1256.67 368.901 1256.28C365.383 1246.41 360.695 1236.99 354.939 1228.23C345.616 1227.94 340.203 1236.6 330.914 1238.03C326.965 1229.26 318.993 1222.06 321.29 1210.14Z" fill="black"/>
<path d="M1240.82 1158.88C1239.63 1152.36 1234.67 1151.43 1230.44 1149.65C1225.81 1147.69 1224.58 1143.58 1224.35 1139.29C1224.11 1134.79 1228.13 1134.14 1231.33 1133.25C1242.49 1130.17 1245.37 1119.12 1250.57 1111.29C1257.08 1101.48 1274.34 1095.47 1281.74 1104.55C1301.82 1129.2 1322.76 1153.26 1339.18 1180.68C1339.57 1181.33 1339.39 1182.33 1339.66 1184.93C1320.71 1186.79 1311.4 1200.06 1306.11 1218.98C1299.62 1211.25 1293.61 1207.68 1285.1 1214.19C1283.74 1204.06 1275.78 1199.19 1272.96 1191.33C1270.27 1183.81 1265.78 1185.61 1260.95 1188.37C1245.21 1197.32 1244.95 1197.28 1236.56 1180.6C1234.88 1177.25 1233.4 1173.79 1232.07 1170.91C1233.48 1165.35 1240.59 1165.38 1240.82 1158.88Z" fill="black"/>
<path d="M535.855 1337.2C538.714 1336.72 541.095 1336.57 542.543 1335.33C554.091 1325.44 565.195 1328.89 568.943 1344.12C569.963 1348.26 571.738 1350.07 575.675 1350.1C579.753 1350.12 583.281 1351.02 585.557 1356.21C576.585 1364.33 583.637 1376.49 579.424 1385.97C575.272 1395.31 568.362 1403.42 561.695 1413.54C553.136 1402.71 540.833 1406.76 530.218 1404.27C518.291 1401.47 510.874 1396.01 507.567 1384.52C507.214 1383.3 507.178 1381.67 506.359 1380.94C494.253 1370.24 500.459 1358.6 503.899 1346.65C508.806 1329.61 516.362 1326.27 531.41 1335.58C532.823 1336.29 534.315 1336.84 535.855 1337.2Z" fill="black"/>
<path d="M1279.32 1381.41C1278.42 1395.21 1263.48 1399.67 1263.31 1415.82C1252.69 1404.7 1241.87 1405.64 1231.56 1405.05C1218.83 1404.32 1211.23 1397.79 1208.82 1385.7C1207.33 1378.23 1202.56 1374.03 1195.98 1370.26C1199.78 1360.82 1202.37 1350.94 1203.7 1340.85C1204.6 1334.26 1221.55 1327.4 1225.99 1332.22C1236.27 1343.36 1243.02 1340.6 1248.51 1327.3C1257.28 1332.08 1267.19 1333.14 1270.11 1345.11C1271.71 1351.65 1283.9 1347.04 1285.9 1356.92C1273.35 1361.58 1281.4 1372.28 1279.32 1381.41Z" fill="black"/>
<path d="M877.804 1335.48C889.631 1344.62 893.804 1332.87 900.825 1327.83C907.897 1333.63 919.375 1333.05 920.896 1346.26C921.623 1352.58 933.935 1346.92 936.001 1356.63C929.351 1360.96 928.217 1367.25 929.971 1376.13C933.1 1391.97 916.588 1399.17 912.594 1414.31C899.826 1401.37 884.076 1408.57 870.894 1402.05C856.715 1395.04 861.278 1375.19 844.582 1370.78C851.172 1360.37 853.659 1350.08 854.848 1339.16C855.702 1331.3 869.319 1329.05 877.804 1335.48Z" fill="black"/>
<path d="M572.54 1045.32C568.302 1051.1 567.24 1057.83 561.233 1063.1C552.396 1051.41 538.933 1058 527.682 1054.33C521.849 1052.43 516.817 1049.33 512.052 1046.2C505.287 1041.74 506.208 1028.02 513.41 1023.22C527.655 1013.72 540.416 1001.78 558.829 999.365C569.58 997.953 577.564 1003.43 590.329 1003.55C581.297 1013.18 581.774 1021.76 581.287 1030C580.913 1036.38 578.898 1041.46 572.54 1045.32Z" fill="black"/>
<path fill-rule="evenodd" clip-rule="evenodd" d="M1468.66 1532.18C1474.18 1557.94 1479.71 1583.72 1486.05 1609.44C1490.67 1609.44 1494.22 1609.44 1497.42 1608.53C1491.72 1588.34 1488.69 1568.03 1485.68 1547.83C1483.73 1534.73 1481.78 1521.68 1479.12 1508.76C1472.88 1478.44 1465.9 1448.32 1457.1 1418.84C1447.07 1385.23 1435.64 1351.92 1421.81 1319.51C1407.51 1286.01 1392.57 1252.78 1373.55 1221.76C1354.12 1190.08 1333.63 1158.91 1309.23 1130.69L1309.11 1130.54C1288.7 1106.94 1268.39 1083.44 1242.73 1064.74C1230.2 1055.6 1216.83 1048.04 1203.5 1040.5L1203.5 1040.5C1194.44 1035.37 1185.4 1030.26 1176.64 1024.67C1149.15 1007.1 1118.79 997.79 1088.45 988.488L1088.45 988.488C1074.01 984.062 1059.58 979.638 1045.46 974.326C1035.31 970.503 1024.59 968.438 1013.81 966.362C995.444 962.824 976.897 959.251 960.64 946.89C958.688 955.275 952.93 956.564 947.114 957.865C943.999 958.563 940.867 959.263 938.294 961.06C920.46 973.519 902.177 985.334 883.892 997.15L883.891 997.151L883.889 997.153C874.122 1003.46 864.356 1009.78 854.657 1016.19C854.246 1016.46 853.847 1016.74 853.454 1017.02C851.329 1018.54 849.39 1019.92 846.814 1018.4C836.467 1012.31 825.283 1008.26 814.1 1004.22C808.227 1002.09 802.354 999.968 796.604 997.548C790.977 995.181 785.307 992.898 779.637 990.616C766.066 985.152 752.493 979.688 739.51 973.058C732.685 969.573 725.378 967.18 718.069 964.787C705.667 960.725 693.261 956.663 683.202 947.258C679.663 943.949 673.527 943.98 669.749 949.343C663.964 957.555 655.128 960.541 646.122 963.466C640.882 965.168 635.609 966.796 630.335 968.426C616.163 972.803 601.984 977.183 588.416 982.98C560.565 994.88 533.253 1008.15 506.253 1021.9C474.193 1038.23 444.463 1058.78 417.853 1082.99C378.032 1119.14 344.396 1160.49 315.653 1205.46C295.5 1237.32 277.719 1270.61 262.453 1305.08C250.836 1330.99 240.742 1357.49 231.625 1384.4C231.226 1385.58 230.827 1386.75 230.427 1387.93C223.058 1409.66 215.699 1431.36 210.443 1453.74C208.779 1460.82 206.958 1467.88 205.137 1474.93L205.137 1474.93C202.085 1486.75 199.033 1498.57 196.721 1510.54C190.371 1543.4 185.1 1576.46 180.5 1609.44C186.847 1609.44 192.073 1609.44 197.612 1608.37C198.594 1590.26 201.963 1573.08 205.276 1556.2L205.276 1556.2C206.126 1551.87 206.971 1547.56 207.772 1543.26C214.41 1507.59 221.524 1471.9 233.159 1437.1C234.494 1433.11 235.825 1429.11 237.155 1425.12C249.855 1386.98 262.528 1348.92 279.479 1312.37C302.343 1263.08 328.559 1215.92 361.243 1172.21C384.933 1140.53 411.128 1111.46 440.928 1085.77C468.559 1061.94 499.927 1044.11 532.704 1027.57C544.224 1021.76 555.997 1016.53 567.76 1011.3L567.76 1011.3C583.06 1004.5 598.344 997.712 613.036 989.663C622.641 984.402 628.43 984.782 632.708 996.982C641.602 1022.35 656.01 1045.39 673.14 1065.55C710.279 1109.24 756.69 1138.96 813.779 1151.1C869.813 1163.01 919.117 1150.84 959.899 1110.74C981.928 1089.08 1003.02 1065.83 1014.69 1036.28C1019.24 1024.76 1023.28 1013.03 1027.44 1000.95L1027.44 1000.95L1027.45 1000.94C1029.36 995.385 1031.3 989.757 1033.33 984.041C1044.73 987.521 1056.04 991.17 1067.33 994.812L1067.33 994.813L1067.33 994.813C1078.14 998.302 1088.93 1001.78 1099.77 1005.1C1145.52 1019.13 1186.41 1043.54 1225.37 1070.54C1268.69 1100.56 1300.76 1141.93 1330.59 1184.68C1352.12 1215.54 1370.24 1248.44 1387.11 1282.26C1403.74 1315.42 1417.95 1349.75 1429.61 1384.97C1441.25 1420.35 1451.91 1456.02 1460.05 1492.56C1462.99 1505.75 1465.82 1518.96 1468.66 1532.18ZM792.985 1013.14C801.328 1017.08 809.674 1021.01 819.047 1022.15H819.04C820.595 1022.9 822.065 1023.64 823.486 1024.36C829.166 1027.24 834.063 1029.72 840.454 1030.62C837.556 1034.9 834.467 1038.88 831.438 1042.78C825.118 1050.93 819.06 1058.74 815.545 1068.24C814.819 1070.21 814.029 1072.14 813.24 1074.08C810.997 1079.58 808.761 1085.07 808.008 1091.12C806.874 1100.24 802.144 1102.54 792.817 1100.71C776.919 1097.58 763.503 1089.64 750.257 1081.36C740.19 1075.08 730.273 1068.54 720.357 1062.01L720.356 1062.01L720.355 1062.01C706.972 1053.19 693.591 1044.38 679.845 1036.17C662.38 1025.75 654.621 1009.05 647.421 991.85C644.279 984.327 650.816 979.25 656.321 975.45C666.417 968.477 677.849 968.286 689.259 971.277C708.66 976.364 726.841 984.529 745.018 992.691L745.019 992.691L745.019 992.692C756.57 997.879 768.119 1003.06 779.977 1007.46C784.405 1009.1 788.695 1011.12 792.985 1013.14ZM923.634 1105.64L923.633 1105.64C920.38 1110.51 917.01 1115.55 909.879 1113.68C904.046 1112.15 902.621 1107.08 901.208 1102.05C900.983 1101.25 900.758 1100.45 900.515 1099.66C892.875 1074.41 877.735 1052.08 857.106 1035.63C834.462 1052.85 826.3 1077.11 820.185 1102.46C820.011 1103.18 819.849 1103.91 819.687 1104.64C818.276 1111.01 816.87 1117.35 807.774 1116.53C785.558 1114.52 764.328 1109.8 745.796 1096.03C731.946 1085.74 717.804 1075.84 703.661 1065.94L703.657 1065.94L703.647 1065.93C697.486 1061.62 691.325 1057.3 685.188 1052.96C687.268 1060.93 691.62 1068.13 697.715 1073.68C719.42 1093.88 744.183 1110.53 771.088 1123C806.844 1139.81 843.879 1142.82 881.566 1136.2C919.286 1129.56 948.736 1107.7 972.118 1077.88C973.339 1076.32 974.614 1074.79 975.902 1073.23C982.464 1065.33 989.353 1057.03 990.997 1043.67C986.739 1047.93 982.791 1052.24 978.945 1056.44L978.944 1056.44C968.741 1067.57 959.256 1077.92 946.613 1084.61C937.817 1089.21 930.284 1095.9 924.676 1104.09H924.679C924.329 1104.6 923.982 1105.12 923.634 1105.64ZM1007.41 1012.12C1005.78 1015.63 1003.78 1018.87 1000.27 1020.87H1000.27C973.24 1046.43 944.338 1069.94 913.804 1091.19C905.138 1065.97 889.27 1044.3 867.354 1026.17C874.652 1021.4 881.887 1016.68 889.073 1011.99C910.644 997.929 931.764 984.158 952.754 970.192C956.734 967.541 958.973 969.169 961.569 971.056C961.95 971.334 962.339 971.617 962.743 971.892C970.95 977.5 980.1 981.62 990 981.15C1010.85 980.16 1016.73 992.046 1007.41 1012.12Z" fill="black"/>
<path d="M395.54 1609.44C396.701 1586.66 398.894 1563.88 401.287 1541.11C404.034 1514.97 406.727 1488.87 410.921 1462.85C414.84 1438.53 419.565 1414.36 425.093 1390.51C434.193 1351.24 447.229 1313.09 469.793 1278.99C472.8 1274.44 475.857 1270.01 481.9 1274.15C487.135 1277.73 484.25 1281.51 482.372 1286.22C472.857 1310.11 463.964 1334.25 455.136 1358.4C442.136 1393.96 434.321 1430.96 427.836 1468.03C421.93 1501.8 419.554 1536.19 415.836 1570.33C414.502 1582.56 413.785 1594.87 412.567 1608.29C407.113 1609.44 401.887 1609.44 395.54 1609.44Z" fill="black"/>
<path d="M1301.73 1609.44C1292.45 1572.62 1289.42 1534.81 1279.34 1498.36C1271.58 1470.29 1265.35 1441.65 1255.3 1414.42C1248.16 1395.08 1241.39 1375.41 1231.94 1356.76C1219.24 1331.71 1208.64 1305.58 1197.29 1279.85C1196 1276.93 1194.24 1273.5 1198.53 1270.92C1202.95 1268.27 1206.05 1270.54 1208.43 1273.64C1212.3 1278.69 1216.3 1283.8 1219.1 1289.46C1229.18 1309.88 1238.74 1330.59 1248.63 1351.08C1263.5 1381.85 1273.37 1414.24 1282.77 1446.65C1291.93 1478.22 1300.47 1510.12 1304.54 1543.1C1307.19 1564.52 1311.69 1585.75 1313.25 1608.41C1309.9 1609.44 1306.35 1609.44 1301.73 1609.44Z" fill="black"/>
<path d="M790.535 1082.03C782.314 1083.96 779.366 1079.32 778.018 1073.63C776.54 1067.38 778.781 1061.89 784.028 1058.11C787.328 1055.73 791.043 1055.72 794.872 1057.52C799.743 1059.81 799.458 1064.06 799.628 1068.32C799.88 1074.63 796.456 1078.6 790.535 1082.03Z" fill="black"/>
<path d="M936.37 1050.49C938.102 1056.39 939.412 1061.94 934.681 1065.4C930.474 1068.48 925.035 1072.08 919.856 1067.43C914.423 1062.55 916.093 1056.1 919.736 1051.37C923.87 1045.99 929.709 1043.34 936.37 1050.49Z" fill="black"/>
<path fill-rule="evenodd" clip-rule="evenodd" d="M1031.12 300.88L1030.64 300.245C998.092 259.859 959.022 232.98 907.126 225.274C859.462 218.196 813.197 220.171 767.362 235.447C752.465 240.286 737.947 246.225 723.93 253.216C686.875 272.001 655.573 297.336 631.565 331.407L631.207 331.915C621.082 346.288 611.213 360.296 591.018 362.313C580.521 363.36 571.926 370.233 563.607 376.884C563.174 377.23 562.741 377.576 562.309 377.921C536.019 398.881 517.998 425.831 506.109 456.8C498.518 476.569 491.972 496.724 486.5 517.181C483.249 529.344 480.531 541.665 477.814 553.98C473.948 571.503 470.085 589.017 464.69 606.057C453.748 640.622 440.973 674.62 428.205 708.595C425.919 714.678 423.634 720.761 421.359 726.846C421.011 727.777 420.663 728.709 420.314 729.643C414.74 744.58 409.061 759.799 400.639 773.108C386.281 795.797 372.558 818.45 364.781 844.367C358.396 865.647 362.846 883.202 381.231 896.167C406.546 913.984 433.372 929.55 461.402 942.687C497.897 959.844 536.144 972.995 575.474 981.908C604.495 988.512 634.8 991.674 661.729 977.669C676.111 970.188 690.393 968.091 705.118 965.928C706.277 965.758 707.44 965.587 708.605 965.414C717.481 964.09 722.424 959.527 725.047 951.603C736.344 917.471 743.068 882.495 741.006 846.471C740.452 836.788 738.942 827.166 737.432 817.541C736.106 809.087 734.779 800.63 734.099 792.128C730.376 745.594 712.67 703.444 693.348 662.028C679.688 632.748 667.904 603.853 672.057 570.47C675.327 544.184 696.989 516.616 716.089 512.516C725.121 510.575 734.165 508.693 743.209 506.812C761.571 502.992 779.936 499.172 798.212 494.85C841.456 484.624 880.367 465.841 915.88 439.396C918.813 437.211 921.449 434.634 924.077 432.066C928.314 427.924 932.531 423.802 937.943 421.372C938.442 421.799 938.88 422.126 939.252 422.403C939.895 422.881 940.338 423.211 940.55 423.655C960.762 465.73 991.695 498.055 1030.71 523.086C1043.52 531.308 1056.34 539.534 1068.94 548.078C1082.56 557.307 1091.81 568.292 1090.78 586.852C1090.11 598.952 1090.32 611.106 1090.53 623.257C1090.76 636.731 1090.99 650.2 1090.02 663.588C1089.26 674.152 1090.59 684.518 1091.92 694.926C1093.83 709.757 1095.74 724.673 1091.62 740.369C1090.15 745.978 1088.81 751.594 1087.48 757.204C1083.99 771.918 1080.51 786.588 1074.54 800.98C1063.13 828.775 1044.28 852.89 1020.06 870.68C1018.47 871.859 1016.88 873.052 1015.28 874.249C1001.47 884.567 987.21 895.226 970.394 901.13C970.184 901.203 969.971 901.277 969.756 901.352C965.04 902.989 959.325 904.973 961.032 912.959C969.774 915.376 977.601 912.609 985.025 908.347C988.286 906.443 991.659 904.737 995.125 903.239C1000.42 900.981 1005.76 898.781 1011.1 896.581C1028.54 889.392 1046.01 882.192 1062.28 872.905C1082.66 861.263 1102.59 848.458 1120.83 833.131C1154.43 804.91 1184.17 774.816 1194.13 729.616C1200.77 699.516 1194.79 674.219 1172.78 652.674C1172.19 652.096 1171.54 651.556 1170.89 651.018C1168.94 649.411 1167.01 647.816 1166.79 645.241C1192.08 600.752 1207.71 554.338 1200.05 502.726C1193.19 456.467 1174.42 415.807 1140.13 383.29C1116.54 360.919 1088.13 346.622 1057.39 336.867C1052.37 335.272 1049.32 332.951 1047.62 328.051C1044.18 318.116 1037.89 309.813 1031.12 300.88ZM645.263 652.423C645.379 653.268 645.557 654.103 645.795 654.923C648.55 670.334 650.631 683.663 653.035 699.057L653.068 699.267C641.641 691.872 637.906 699.735 634.111 707.727L633.987 707.987C630.49 715.67 625.539 722.604 619.408 728.407C602.522 744.133 574.228 731.862 562.422 705.962C549.398 677.395 540.307 647.768 539.967 616.547C539.95 614.954 539.924 613.354 539.898 611.749C539.59 592.856 539.271 573.232 552.989 556.838C559.516 548.936 567.904 542.779 577.4 538.922C587.863 534.688 597.904 535.365 605.363 546.565C626.85 578.835 642.605 613.123 645.263 652.423Z" fill="black"/>
<path d="M976.63 788.232C983.849 796.854 985.701 808.173 996.777 813.144C1001.29 815.169 999.235 820.876 993.911 822.326C990.716 823.197 987.129 823.026 983.755 822.785C961.371 821.202 939.073 819.438 916.637 823.277C908.868 824.606 900.584 823.031 892.543 822.625C888.258 822.408 885.08 820.239 884.597 815.81C884.114 811.381 888.127 809.417 891.117 809.331C904.843 808.939 912.178 799.103 919.862 790.247C926.704 782.361 934.851 780.857 944.662 780.758C955.833 780.645 967.366 776.744 976.63 788.232Z" fill="black"/>
<path d="M961.186 848.528C951.169 849.686 941.686 851.906 933.228 842.316C942.578 837.458 951.059 838.064 959.128 837.504C962.113 837.297 966.055 839.361 966.751 843.163C967.287 846.079 964.519 847.35 961.186 848.528Z" fill="black"/>
<path d="M972.459 711.036C977.529 695.365 966.48 684.736 962.076 672.512C953.52 648.769 945.87 625.105 947.089 599.474C947.306 594.906 946.389 588.774 953.077 588.936C958.214 589.062 960.977 594.11 961.177 598.948C962.666 634.448 975.602 666.571 990.105 698.238C992.838 704.204 992.214 709.323 988.984 715.091C980.513 730.218 966.653 735.136 950.794 735.623C942.077 735.891 935.861 731.096 932.621 720.395C946.624 718.56 961.965 725.186 972.459 711.036Z" fill="black"/>
<path d="M1017.42 660.506C1030.47 660.835 1042.79 661.627 1055.03 663.023C1057.98 663.359 1059.95 666.345 1060.02 669.673C1060.08 673.001 1058.26 675.314 1055.29 676.614C1044.12 681.505 1033.27 684.914 1021.58 676.875C1015.1 672.42 1012.67 668.208 1017.42 660.506Z" fill="black"/>
<path d="M861.157 662.011C867.557 664.832 866.849 668.626 864.128 672.63C858.335 681.154 836.874 685.054 828.103 679.162C823.115 675.812 820.125 671.201 822.551 665.184C825.059 658.966 830.306 659.599 835.375 661.626C843.667 664.941 851.898 663.316 861.157 662.011Z" fill="black"/>
<path d="M1029.62 648.952C1025.44 639.521 1019.74 633.786 1009.77 633.304C1003.83 633.018 1002.77 628.198 1000.9 623.485C1002.89 621.985 1004.44 619.819 1006.16 619.669C1027.31 617.977 1048.56 617.941 1069.71 619.562C1075.75 619.985 1079.01 627.636 1072.93 630.029C1062.84 633.997 1060.41 643.24 1054.37 649.844C1046.23 658.751 1039.19 658.941 1029.62 648.952Z" fill="black"/>
<path d="M839.638 619.126C851.775 619.774 862.738 620.055 873.627 621.065C877.21 621.397 881.617 622.888 881.642 627.765C881.673 633.419 877.021 632.975 873.29 632.92C866.973 632.827 863.56 635.6 860.825 641.494C857.396 648.88 853.9 656.804 842.793 656.255C832.321 655.737 827.681 649.11 824.649 641.062C822.515 635.4 819.749 632.662 813.707 632.88C810.331 633 806.59 632.731 806.2 628.009C805.784 622.975 809.2 621.971 813.238 620.831C821.573 618.47 829.927 618.094 839.638 619.126Z" fill="black"/>
<path fill-rule="evenodd" clip-rule="evenodd" d="M936.086 552.281L936.091 552.281C988.115 552.626 1039.33 552.965 1090.54 553.379C1095.22 553.534 1099.88 553.946 1104.51 554.613C1111.63 555.461 1114.91 558.8 1116.49 566.645C1122.72 597.494 1119.29 627.659 1110.22 657.034C1104.76 674.708 1090.23 685.104 1072.67 690.575C1049.74 697.719 1026.22 702.951 1002.87 694.475C982.13 686.945 965.693 674.48 960.014 650.539C959.303 647.544 958.415 644.608 957.53 641.683L957.53 641.683C955.016 633.372 952.533 625.162 954.257 616.009C954.996 612.085 951.195 610.147 948.208 608.625L948.178 608.609C933.188 600.963 918.478 608.418 915.77 625.087C912.8 643.375 906.77 660.896 896.409 675.877C879.865 699.791 854.759 705.261 827.4 702.024C805.853 699.474 787.236 690.436 771.2 675.436C756.85 662.014 749.583 645.894 751.124 626.641C752.024 615.435 745.703 610.341 737.424 608.931C723.108 606.491 709.839 601.084 696.64 595.707L696.64 595.707C691.89 593.772 687.15 591.84 682.373 590.052C675.182 587.361 667.875 585.068 660.573 582.776L660.573 582.776C652.535 580.254 644.505 577.733 636.643 574.686C636.288 574.549 635.935 574.417 635.588 574.286L635.587 574.286C631.77 572.856 628.566 571.655 629.191 565.821C634.893 563.16 640.131 564.868 645.555 566.636C649.145 567.807 652.817 569.004 656.759 568.979C654.074 559.998 648.481 556.606 639.498 556.208C628.724 555.73 619.098 552.031 611.968 543.033C616.742 538.381 620.995 538.713 625.149 539.84C646.516 545.638 668.347 548.926 690.183 552.215C708.177 554.925 726.175 557.636 743.922 561.752C754.208 564.137 765.261 564.18 774.962 555.33C781.178 549.658 790.446 549.846 798.931 550.018C799.981 550.04 801.018 550.061 802.037 550.07C827.29 550.306 852.539 550.861 878.239 551.425L878.239 551.425C888.89 551.659 899.618 551.895 910.456 552.11C919.023 552.167 927.565 552.224 936.086 552.281ZM760.356 617.971C763.719 659.682 787.103 680.956 823.136 688.965C846.709 694.205 875.409 689.103 889.946 662.185C898.129 647.032 902.768 631.045 906.959 614.601C910.83 599.408 921.194 594.555 942.6 596.34C956.894 597.532 963.476 604.184 965.4 618.805C966.843 629.764 968.476 640.705 970.421 651.589C972.877 665.337 989.854 681.913 1003.73 684.698C1025.07 689.112 1047.22 687.481 1067.68 679.99C1079.66 675.651 1090.59 669.619 1096.36 656.996C1106.44 634.947 1109.45 611.71 1109.14 587.78C1108.85 565.859 1107.52 564.38 1084.84 564.29C1070.75 564.234 1056.66 564.251 1042.56 564.267C1023.03 564.29 1003.49 564.313 983.955 564.142C958.981 563.925 934.008 563.604 909.035 563.283L909.035 563.283C879.978 562.909 850.922 562.536 821.864 562.325C818.382 562.3 814.788 561.963 811.177 561.623C800.435 560.615 789.534 559.591 780.937 566.725C771.995 574.143 763.102 574.12 753.534 574.095H753.533C752.385 574.092 751.227 574.089 750.058 574.099C747.558 574.12 745.094 573.606 742.603 573.087C738.399 572.209 734.118 571.316 729.458 572.953C730.779 587.769 734.15 600.719 751.399 604.178C757.747 605.448 761.123 609.009 760.352 617.971H760.356ZM684.546 564.56C693.391 563.411 701.56 562.35 704.44 575.114H704.436C705.954 579.856 707.095 582.844 708.497 586.515L708.515 586.562C695.509 583.793 685.342 578.841 680.387 565.051C681.778 564.92 683.17 564.739 684.546 564.56Z" fill="black"/>
<path d="M896.905 582.754C896.231 576.754 900.033 575.42 903.921 575.408C922.994 575.35 942.074 575.424 961.138 575.922C965.487 575.943 969.579 577.982 972.214 581.442C965.312 589.5 918.64 590.826 896.905 582.754Z" fill="black"/>
<path d="M872.866 556.818C879.466 556.018 884.894 555.044 890.366 554.489C895.097 554.009 898.623 556.283 900.656 560.52C902.556 564.476 899.246 566.487 897.345 569.262C882.426 591.038 860.364 585.884 840.545 582.262C826.487 579.691 810.124 577.156 803.369 559.584C799.915 550.599 800.584 547.526 810.516 546.639C816.232 546.128 821.446 547.863 826.69 549.623C841.542 554.705 857.171 557.141 872.866 556.818Z" fill="black"/>
<path d="M1003.38 557.23C1008.99 553.109 1014.19 554.259 1019.78 555.392C1036.9 558.87 1054.06 561.161 1069.98 550.683C1074.29 547.839 1079.23 547.173 1082.7 551.383C1085.9 555.283 1083 559.15 1080.83 563.013C1073.88 575.367 1061.94 579.387 1049.43 582.603C1039.36 585.193 1029.03 584.653 1018.88 584.035C1003.02 583.071 997.146 573.032 1003.38 557.23Z" fill="black"/>
</svg>
